<svg xmlns="http://www.w3.org/2000/svg" width="100" height="132" viewBox="0 0 100 132">
    <g fill="none" fill-rule="evenodd">
        <g fill-rule="nonzero">
            <path fill="#D07C40" d="M7.319 16.82h85.374v32.221H7.319z"/>
            <path fill="#F4B459" d="M99.808 41.88v82.344c0 3.938-3.202 7.16-7.115 7.16H7.32c-3.913 0-7.115-3.222-7.115-7.16V41.88h99.604z"/>
            <path fill="#F4B459" d="M7.319 45.461H17.99v-17.9L7.319 16.82v28.64zm74.702-17.9v17.9h10.672v-28.64L82.02 27.56z"/>
            <path fill="#E3911C" d="M17.99 41.88V27.56L.205 41.88h17.787zm64.03-14.32v14.32h17.787L82.02 27.56z"/>
            <path fill="#CF984A" d="M19.77 59.781c-2.135 0-3.558 1.432-3.558 3.58 0 2.149 1.423 3.58 3.557 3.58 2.135 0 3.557-1.431 3.557-3.58 0-2.147-1.422-3.58-3.557-3.58zm60.472 0c-2.134 0-3.557 1.432-3.557 3.58 0 2.149 1.423 3.58 3.557 3.58 2.135 0 3.558-1.431 3.558-3.58 0-2.147-1.424-3.58-3.558-3.58z"/>
            <path fill="#CF984A" d="M19.77 66.584c2.134 0 2.49 2.506 2.49 2.506 0 16.11 12.094 28.999 27.746 28.999S77.753 85.201 77.753 69.09c0 0 .356-2.506 2.49-2.506 2.135 0 2.49 2.506 2.49 2.506 0 18.975-14.229 34.011-32.726 34.011-18.498 0-32.727-15.395-32.727-34.011 0 0 .355-2.506 2.49-2.506z"/>
            <path fill="#FDFBF7" d="M19.77 63.004c2.134 0 2.49 2.506 2.49 2.506 0 16.11 12.094 28.999 27.746 28.999s27.747-12.889 27.747-29c0 0 .356-2.505 2.49-2.505 2.135 0 2.49 2.506 2.49 2.506 0 18.975-14.229 34.01-32.726 34.01-18.498 0-32.727-15.394-32.727-34.01 0 0 .355-2.506 2.49-2.506z"/>
        </g>
        <g transform="translate(20 -13)">
            <ellipse cx="29.5" cy="30" fill="#39B54A" rx="16.594" ry="16.875"/>
            <path fill="#FFF" fill-rule="nonzero" d="M23.618 30.03a1.822 1.822 0 0 0-2.604.138c-.681.77-.62 1.955.137 2.648l3.77 3.452a1.822 1.822 0 0 0 2.537-.067L37.78 25.705c.72-.732.72-1.92 0-2.652a1.822 1.822 0 0 0-2.607 0l-9.084 9.238-2.47-2.262z"/>
        </g>
    </g>
</svg>
