<svg xmlns="http://www.w3.org/2000/svg" width="53" height="43" viewBox="0 0 53 43">
    <path fill="#515468" fill-rule="nonzero" d="M32.037-14.76c2.234.901 3.46 3.318 2.913 5.739L33.682-3.4A30.662 30.662 0 0 1 37.995.911l5.552-1.415a4.728 4.728 0 0 1 2.987.19c1.216.492 2.157 1.445 2.66 2.683l2.677 6.587c.932 2.261.1 4.9-1.952 6.25l-4.826 3.168c.18 1.994.173 4.005-.013 6.018l4.809 2.996c2.048 1.27 2.86 3.871 1.9 6.162l-2.702 6.687c-.93 2.302-3.322 3.609-5.678 3.1l-5.534-1.201a32.837 32.837 0 0 1-4.171 4.337l1.265 5.648c.537 2.397-.712 4.867-2.937 5.852l-6.502 2.879c-1.222.54-2.56.572-3.777.08l-.236-.102a4.771 4.771 0 0 1-2.06-1.841l-2.996-4.868a30.989 30.989 0 0 1-5.887.115L7.54 59.218c-1.287 2.122-3.849 3.008-6.082 2.106l-6.499-2.626c-2.233-.902-3.46-3.319-2.912-5.74l1.294-5.685a30.894 30.894 0 0 1-4.033-4.03l-5.61 1.428a4.728 4.728 0 0 1-2.987-.191c-1.217-.492-2.158-1.444-2.66-2.682l-2.678-6.587c-.932-2.261-.099-4.9 1.952-6.25l4.792-3.127c-.195-2-.204-4.017-.024-6.014l-4.864-3.037c-2.049-1.27-2.861-3.871-1.93-6.174l2.7-6.687c.931-2.303 3.322-3.61 5.679-3.1l5.472 1.176a32.318 32.318 0 0 1 4.147-4.366L-7.98-8.076c-.537-2.396.712-4.866 2.937-5.852L1.474-16.8a4.775 4.775 0 0 1 3.777-.081 4.776 4.776 0 0 1 2.297 1.943l2.964 4.856a30.238 30.238 0 0 1 5.885-.153l3.075-5.04c1.287-2.121 3.849-3.008 6.082-2.106zm-1.695 4.284l-6.484-2.62a.434.434 0 0 0-.541.188l-3.823 6.27a2.32 2.32 0 0 1-2.218 1.1 25.915 25.915 0 0 0-7.567.194A2.216 2.216 0 0 1 7.468-6.36l-3.735-6.054a.4.4 0 0 0-.199-.173.415.415 0 0 0-.344.009L-3.31-9.7a.478.478 0 0 0-.265.52l1.59 7.11c.2.875-.119 1.799-.83 2.362a27.885 27.885 0 0 0-5.329 5.606 2.274 2.274 0 0 1-2.32.91l-6.871-1.483a.44.44 0 0 0-.506.276l-2.701 6.687a.44.44 0 0 0 .171.55l6.053 3.775c.743.467 1.14 1.347 1.028 2.244a27.63 27.63 0 0 0 .028 7.734 2.407 2.407 0 0 1-1.042 2.314l-6.002 3.948a.476.476 0 0 0-.172.56L-17.802 40c.063.155.18.22.241.246.077.03.167.03.263.014l6.989-1.777c.463-.127.945-.08 1.361.088.355.143.686.388.932.709A27.146 27.146 0 0 0-2.78 44.5c.702.523 1.034 1.433.832 2.33l-1.617 7.107a.434.434 0 0 0 .26.511l6.483 2.62c.2.08.427.006.542-.188l3.788-6.229a2.248 2.248 0 0 1 2.218-1.099c2.508.311 5.051.267 7.57-.156a2.188 2.188 0 0 1 2.225 1.01l3.76 6.082a.4.4 0 0 0 .198.172.415.415 0 0 0 .344-.008l6.502-2.88a.478.478 0 0 0 .264-.52l-1.57-7.064c-.196-.892.139-1.81.85-2.372a27.901 27.901 0 0 0 5.368-5.572 2.258 2.258 0 0 1 2.299-.9l6.918 1.5a.44.44 0 0 0 .505-.275l.016.006 2.701-6.687a.44.44 0 0 0-.172-.55l-6.013-3.74c-.75-.451-1.161-1.338-1.028-2.245.358-2.57.37-5.171.01-7.737-.121-.899.282-1.808 1.035-2.298l6.03-3.974a.476.476 0 0 0 .173-.559l-2.678-6.587a.438.438 0 0 0-.24-.245.484.484 0 0 0-.264-.014l-6.905 1.792a2.19 2.19 0 0 1-2.302-.82 26.51 26.51 0 0 0-5.478-5.464c-.717-.53-1.042-1.456-.84-2.353L30.6-9.965a.434.434 0 0 0-.259-.511zM20.394 6.42c8.682 3.507 12.795 13.629 9.178 22.582-3.617 8.953-13.608 13.377-22.29 9.869C-1.4 35.363-5.513 25.24-1.896 16.288 1.721 7.335 11.712 2.912 20.394 6.42zm-1.714 4.24c-6.412-2.59-13.792.677-16.464 7.29-2.671 6.613.367 14.09 6.78 16.68 6.412 2.59 13.792-.677 16.464-7.29 2.671-6.612-.367-14.089-6.78-16.68z"/>
</svg>
