<svg xmlns="http://www.w3.org/2000/svg" xmlns:xlink="http://www.w3.org/1999/xlink" width="135" height="114" viewBox="0 0 135 114">
    <defs>
        <rect id="a" width="135" height="114" rx="4"/>
    </defs>
    <g fill="none" fill-rule="evenodd">
        <mask id="b" fill="#fff">
            <use xlink:href="#a"/>
        </mask>
        <use fill="#676767" xlink:href="#a"/>
        <path fill="#444" d="M54-24c44.735 0 81 36.265 81 81s-36.265 81-81 81-81-36.265-81-81S9.265-24 54-24zm9.87 57H28.295c-.895 0-1.655.692-1.74 1.584l-.356 2.856h20.27a2.31 2.31 0 0 1 2.32 2.384 2.46 2.46 0 0 1-2.445 2.383h-6.761l.003.01H19.731A1.74 1.74 0 0 0 18 43.902c-.024.93.71 1.685 1.641 1.685h26.286a2.47 2.47 0 0 1 2.098 2.52 2.635 2.635 0 0 1-2.6 2.553h-18.12c-.94 0-1.723.762-1.748 1.702a1.65 1.65 0 0 0 1.658 1.703h17.908a2.47 2.47 0 0 1 2.134 2.526 2.636 2.636 0 0 1-2.62 2.553H24.093v.002h-1.726c-.94 0-1.722.762-1.747 1.702a1.65 1.65 0 0 0 1.658 1.703h1.49l-.583 6.097c-.125 1.385.303 2.693 1.206 3.683.901.988 2.16 1.532 3.543 1.532h1.285a7.426 7.426 0 0 0 7.348 6.148c3.707 0 6.875-2.646 7.67-6.148h16.04c1.296 0 2.523-.496 3.486-1.308.88.845 2.048 1.308 3.322 1.308h.264a7.426 7.426 0 0 0 7.349 6.148c3.706 0 6.874-2.646 7.67-6.148h1.058c2.758 0 5.204-2.242 5.453-4.998l1.037-11.49c.001-.016 0-.032.002-.047l.005-.07v-.043l-.002-.04a1.648 1.648 0 0 0-1.655-1.62h-.435l-6.714-12.981a1.65 1.65 0 0 0-1.472-.89l-11.463-.002.437-3.467c.125-1.385-.303-2.693-1.206-3.683-.901-.988-2.159-1.532-3.542-1.532zM36.88 68.096a4.128 4.128 0 0 1 4.144 4.255c-.062 2.347-2.02 4.256-4.367 4.256a4.128 4.128 0 0 1-4.145-4.256c.062-2.346 2.02-4.255 4.367-4.255zm38.13 0a4.128 4.128 0 0 1 4.144 4.255c-.062 2.347-2.02 4.256-4.367 4.256a4.129 4.129 0 0 1-4.144-4.256c.061-2.346 2.02-4.255 4.367-4.255zm-7.135-23.01l4.929.001-.781 8.657c-.125 1.385.303 2.693 1.205 3.683.901.988 2.16 1.532 3.543 1.532h9.59l-.874 9.689c-.088.981-.991 1.81-1.971 1.81H82.37a7.427 7.427 0 0 0-7.272-5.767c-3.571 0-6.643 2.456-7.574 5.768h-.35c-.433 0-.82-.163-1.088-.457-.27-.297-.398-.7-.359-1.137l2.147-23.779z" mask="url(#b)"/>
    </g>
</svg>
