<svg xmlns="http://www.w3.org/2000/svg" xmlns:xlink="http://www.w3.org/1999/xlink" width="107" height="140" viewBox="0 0 107 140">
    <defs>
        <path id="a" d="M0 0h125v158H0z"/>
    </defs>
    <g fill="none" fill-rule="evenodd" transform="translate(0 -9)">
        <mask id="b" fill="#fff">
            <use xlink:href="#a"/>
        </mask>
        <path fill="#444" d="M50.5 104a38.316 38.316 0 0 1-18.001-4.468l8.74-8.824c.338-.342.647-.7.935-1.068 8.77 2.69 18.698.545 25.6-6.424 7.033-7.1 9.028-17.293 6.017-26.154L60.329 70.653l-11.852-4.17-4.284-11.811L57.655 41.08c-8.888-2.927-19.062-.835-26.095 6.266-6.903 6.97-8.95 16.917-6.177 25.66-.367.292-.722.605-1.06.946l-8.401 8.482A38.332 38.332 0 0 1 12 65.5C12 44.237 29.237 27 50.5 27S89 44.237 89 65.5 71.763 104 50.5 104m0-95C19.296 9-6 34.404-6 65.741-6 103.38 50.5 149 50.5 149S107 103.379 107 65.741C107 34.404 81.704 9 50.5 9" mask="url(#b)"/>
    </g>
</svg>
