<svg xmlns="http://www.w3.org/2000/svg" width="106" height="76" viewBox="0 0 106 76">
    <path fill="#E9C800" fill-rule="evenodd" d="M43-25c34.794 0 63 28.206 63 63s-28.206 63-63 63-63-28.206-63-63S8.206-25 43-25zm1.774 34.358a3.767 3.767 0 0 0-4.963.138l-.039.037-.345.331c-4.4 4.143-9.542 6.249-16.14 6.618-3.247.18-5.829 2.867-5.877 6.114-.01.662-.027 1.26-.053 1.83l-.003.107-.01.579c-.128 6.802-.205 15.135 2.59 22.718 1.58 4.29 3.975 8.018 7.115 11.083 3.577 3.49 8.261 6.261 13.924 8.236a4.306 4.306 0 0 0 1.399.237 4.23 4.23 0 0 0 1.401-.238c5.656-1.978 10.336-4.75 13.909-8.24 3.139-3.066 5.533-6.796 7.115-11.086C67.683 40 67.52 31.39 67.388 24.472l-.001-.046-.015-.344c-.018-.464-.03-.953-.038-1.486-.049-3.247-2.63-5.933-5.878-6.115-6.77-.378-12.01-2.586-16.485-6.948l-.038-.037zm-2.616 2.676c.13-.11.298-.11.428 0 2.554 2.484 5.298 4.327 8.386 5.634 3.093 1.31 6.46 2.05 10.292 2.264a2.774 2.774 0 0 1 2.614 2.716c.01.692.029 1.318.055 1.912.133 6.967.28 14.862-2.378 22.067-3.032 8.22-9.222 13.866-18.922 17.259a.777.777 0 0 1-.522 0C32.4 60.5 26.206 54.857 23.177 46.636c-2.65-7.19-2.5-15.078-2.367-22.037v-.04l.019-.453c.017-.461.029-.943.036-1.459a2.774 2.774 0 0 1 2.615-2.715c3.832-.214 7.198-.954 10.291-2.264 3.09-1.307 5.833-3.15 8.387-5.634zm.213 11.23c-8.093 0-14.677 6.584-14.677 14.676 0 8.094 6.584 14.678 14.677 14.678s14.677-6.584 14.677-14.678c0-8.092-6.584-14.677-14.677-14.677zm0 3.455c6.187 0 11.22 5.034 11.22 11.221 0 6.188-5.033 11.222-11.22 11.222-6.188 0-11.222-5.034-11.222-11.222 0-6.187 5.034-11.221 11.222-11.221zm6.662 6.665a1.727 1.727 0 0 0-2.444 0L39.772 40.2l-1.85-1.85-.124-.113a1.728 1.728 0 0 0-2.32 2.556l3.072 3.072.132.12c.316.257.703.386 1.09.386.442 0 .884-.168 1.222-.506l8.039-8.039.112-.123a1.728 1.728 0 0 0-.112-2.32z"/>
</svg>
