<svg xmlns="http://www.w3.org/2000/svg" xmlns:xlink="http://www.w3.org/1999/xlink" width="40" height="60" viewBox="0 0 40 60">
    <defs>
        <path id="a" d="M0 0h72v72H0z"/>
        <path id="c" d="M.284.556h.683V2.78H.284z"/>
        <path id="e" d="M4.123 2.442c-5.457 3.151-5.457 8.26 0 11.41 5.458 3.15 14.305 3.15 19.763 0 5.456-3.15 5.456-8.259 0-11.41C21.158.867 17.58.079 14.005.079c-3.577 0-7.153.788-9.882 2.363"/>
    </defs>
    <g fill="none" fill-rule="evenodd" transform="translate(-8 -6)">
        <mask id="b" fill="#fff">
            <use xlink:href="#a"/>
        </mask>
        <g mask="url(#b)">
            <path fill="#3C3C3B" d="M35.982 46.376c6.4 3.696 6.4 9.688 0 13.384-6.402 3.695-16.78 3.695-23.181 0-6.401-3.696-6.401-9.688 0-13.384 6.401-3.695 16.779-3.695 23.18 0"/>
            <path fill="#A2A0A0" d="M46.123 39.007H15.982l3.53 20.607c.15 1.583 1.271 3.14 3.366 4.35 4.51 2.604 11.825 2.604 16.335 0 2.06-1.19 3.179-2.716 3.358-4.272l3.552-20.685z"/>
            <path fill="#3C3C3B" d="M31.524 65.903c2.795-.066 5.556-.707 7.69-1.94 2.06-1.19 3.178-2.715 3.357-4.272l3.552-20.684H31.524v26.896z"/>
            <g transform="translate(46.63 37.15)">
                <mask id="d" fill="#fff">
                    <use xlink:href="#c"/>
                </mask>
                <path fill="#B35D4A" d="M.959.556V2.78l-.527-.95z" mask="url(#d)"/>
            </g>
            <path fill="#B35D4A" d="M15.038 37.586l-.545.176v2.353s1.006-.184 1.006-.258c0-.074-.46-2.271-.46-2.271"/>
            <path fill="#A2A0A0" d="M42.75 33.358c6.463 3.732 6.463 9.783 0 13.515-6.465 3.731-16.944 3.731-23.409 0-6.463-3.732-6.463-9.783 0-13.515 6.465-3.732 16.944-3.732 23.409 0"/>
            <path fill="#FEFEFE" d="M42.75 31.142c6.463 3.732 6.463 9.783 0 13.515-6.465 3.732-16.944 3.732-23.409 0-6.463-3.732-6.463-9.783 0-13.515 6.465-3.732 16.944-3.732 23.409 0"/>
            <path fill="#A2A0A0" d="M40.927 32.194c5.457 3.152 5.457 8.26 0 11.411-5.458 3.151-14.305 3.151-19.763 0-5.457-3.15-5.457-8.26 0-11.41 5.458-3.151 14.305-3.151 19.763 0"/>
            <g transform="translate(17.041 29.752)">
                <mask id="f" fill="#fff">
                    <use xlink:href="#e"/>
                </mask>
                <path fill="#3C3C3B" d="M23.565 5.145c5.242 3.027 5.242 7.934 0 10.961s-13.741 3.027-18.983 0c-5.243-3.027-5.243-7.934 0-10.96 5.242-3.027 13.741-3.027 18.983 0" mask="url(#f)"/>
            </g>
            <g fill="#FEFEFE">
                <path d="M31.55 39.833a.645.645 0 0 1-.644-.645V19.32S31.304 6.494 44.55 6.829c0 0 2.289 13.161-12.353 13.58v18.779c0 .356-.29.645-.646.645"/>
                <path d="M31.55 39.833c.358 0 .647-.29.647-.645V19.32S31.799 6.494 18.553 6.829c0 0-2.29 13.161 12.353 13.58v18.779c0 .356.288.645.645.645"/>
            </g>
        </g>
    </g>
</svg>
