<svg xmlns="http://www.w3.org/2000/svg" xmlns:xlink="http://www.w3.org/1999/xlink" width="113" height="90" viewBox="0 0 113 90">
    <defs>
        <path id="a" d="M0 0h113v90H0z"/>
    </defs>
    <g fill="none" fill-rule="evenodd">
        <mask id="b" fill="#fff">
            <use xlink:href="#a"/>
        </mask>
        <path fill="#201E1B" d="M44-24c38.108 0 69 30.892 69 69 0 38.108-30.892 69-69 69-38.108 0-69-30.892-69-69 0-38.108 30.892-69 69-69zm14.872 42.39c-1.12 0-1.998.877-1.998 1.997v1.705H32.418v-1.705l-.005-.151a1.973 1.973 0 0 0-1.992-1.846c-1.121 0-1.998.877-1.998 1.997v1.705h-10.23l-.152.006a1.973 1.973 0 0 0-1.846 1.992v44.625l.006.145c.078 1.005.968 1.804 1.991 1.804H70.76l.151-.005a1.973 1.973 0 0 0 1.846-1.992V24.09l-.005-.151a1.973 1.973 0 0 0-1.992-1.847h-9.89v-1.705l-.005-.151a1.973 1.973 0 0 0-1.992-1.846zm9.89 16.856v31.472H20.19V35.246h48.572zM30.128 54.051l-.151.006a1.973 1.973 0 0 0-1.846 1.992c0 1.12.877 1.997 1.997 1.997H44.5l.151-.005a1.973 1.973 0 0 0 1.846-1.992c0-1.12-.876-1.998-1.997-1.998zm0-9.646l-.151.006a1.973 1.973 0 0 0-1.846 1.992c0 1.12.877 1.997 1.997 1.997h28.744l.151-.005a1.973 1.973 0 0 0 1.846-1.992c0-1.12-.877-1.998-1.997-1.998zm-1.705-18.318v1.072l.005.151a1.973 1.973 0 0 0 1.993 1.846c1.12 0 1.997-.877 1.997-1.997v-1.072h24.456v1.072l.006.151a1.973 1.973 0 0 0 1.992 1.846c1.12 0 1.997-.877 1.997-1.997v-1.072h7.941v5.164H20.19v-5.164h8.233z" mask="url(#b)"/>
    </g>
</svg>
