<svg xmlns="http://www.w3.org/2000/svg" xmlns:xlink="http://www.w3.org/1999/xlink" width="113" height="90" viewBox="0 0 113 90">
    <defs>
        <path id="a" d="M0 0h113v90H0z"/>
    </defs>
    <g fill="none" fill-rule="evenodd">
        <mask id="b" fill="#fff">
            <use xlink:href="#a"/>
        </mask>
        <path fill="#201E1B" d="M44-24c38.108 0 69 30.892 69 69 0 38.108-30.892 69-69 69-38.108 0-69-30.892-69-69 0-38.108 30.892-69 69-69zm25.255 67.1c-.075-1.659-1.208-.791-1.208-.791L48.67 54.193l-.253.147c-1.116.617-2.495.953-3.918.953-1.534 0-3.015-.39-4.172-1.1L21.44 42.61c-.099-.058-1.705-.975-1.705 1.322V55.5l.004.192c.23 6.038 11.226 12.47 24.758 12.47 13.676 0 24.762-6.569 24.762-12.662V43.28zm5.461-3.072c-.004-.165-.05-.852-.533-.583-.44.245-1.517.845-1.896 1.175-.438.38-.34 1.235-.34 1.235v17.696l-.009.088c-.043.192-.22.29-.31.344a3.367 3.367 0 1 0 3.396-.007c-.1-.058-.307-.174-.307-.425zm-27.783-24.37c-1.462-.773-3.689-.735-5.074.115L13.089 30.16l-.146.094c-1.304.896-1.256 2.283.145 3.143l28.77 17.645.204.116c1.462.772 3.689.733 5.074-.116l28.77-17.645.146-.094c1.304-.896 1.256-2.283-.145-3.143L47.136 15.773z" mask="url(#b)"/>
    </g>
</svg>
