<svg xmlns="http://www.w3.org/2000/svg" width="135" height="119" viewBox="0 0 135 119">
    <path fill="#FBD4B0" fill-rule="evenodd" d="M54-21c44.735 0 81 36.265 81 81s-36.265 81-81 81-81-36.265-81-81S9.265-21 54-21zm0 49c-2.985 0-5.873.42-8.616 1.188h-.014l-.009.004-.01.005a31.798 31.798 0 0 0-6.874 2.855 1.09 1.09 0 0 0 .297-.742c0-.61-.495-1.103-1.104-1.103h-1.078l-.12.006a1.103 1.103 0 0 0 .12 2.2h1.078l.064-.006c.041-.01.08-.023.123-.03-.285.166-.567.336-.846.511-.043.028-.068.07-.106.102a32.194 32.194 0 0 0-3.103 2.24c-.044.026-.093.037-.134.072-.266.218-.529.44-.787.67-.022.018-.03.045-.05.064-.99.875-1.926 1.811-2.801 2.801-.02.02-.047.029-.065.05-.228.258-.45.52-.67.786-.034.041-.045.092-.072.136a32.132 32.132 0 0 0-2.237 3.1c-.033.04-.076.065-.103.109-.175.278-.345.56-.511.844.014-.068.042-.132.042-.206v-1.078l-.007-.12a1.103 1.103 0 0 0-2.2.12v1.078l.006.12c.06.554.529.983 1.097.983.294 0 .556-.118.754-.305a31.778 31.778 0 0 0-2.866 6.894l-.01.022v.009A32.008 32.008 0 0 0 22 60c0 2.984.42 5.87 1.186 8.611l.001.018c.003.01.01.018.012.028a31.808 31.808 0 0 0 2.853 6.866 1.09 1.09 0 0 0-.742-.297c-.609 0-1.103.494-1.103 1.104v1.078l.006.12a1.103 1.103 0 0 0 2.2-.12V76.33l-.006-.063c-.01-.04-.023-.08-.03-.121.165.282.335.565.51.842.041.067.094.123.147.178a32.088 32.088 0 0 0 2.192 3.03c.028.045.04.095.074.137.22.266.443.529.67.787.019.021.045.029.065.047.876.991 1.813 1.928 2.804 2.803.02.02.029.047.05.065.258.227.52.45.784.667.046.037.099.055.148.084a31.91 31.91 0 0 0 3.091 2.228c.039.032.064.073.107.101.278.174.56.345.844.51-.07-.011-.133-.039-.207-.039h-1.078l-.12.007a1.103 1.103 0 0 0 .12 2.2h1.078l.12-.006c.553-.06.983-.528.983-1.097 0-.294-.119-.556-.305-.754a31.744 31.744 0 0 0 6.896 2.867c.007 0 .011.006.019.009.008.002.014 0 .022.002A31.908 31.908 0 0 0 54 92c2.983 0 5.867-.42 8.608-1.186l.022-.002c.007-.002.011-.007.019-.01a31.798 31.798 0 0 0 6.874-2.854 1.09 1.09 0 0 0-.297.742c0 .61.495 1.103 1.104 1.103h1.078l.12-.006a1.103 1.103 0 0 0-.12-2.2H70.33l-.064.006c-.041.01-.08.023-.123.03.285-.166.567-.336.846-.511.043-.028.068-.07.106-.102a31.975 31.975 0 0 0 3.086-2.227c.05-.03.105-.047.151-.085.266-.218.529-.44.787-.67.022-.018.03-.046.05-.066a32.208 32.208 0 0 0 2.806-2.806c.017-.017.043-.024.06-.044.227-.258.45-.52.669-.786.034-.041.045-.092.072-.136a32.038 32.038 0 0 0 2.191-3.03c.054-.055.106-.113.15-.18.173-.278.343-.56.51-.844-.013.071-.04.134-.04.208v1.078l.006.12a1.103 1.103 0 0 0 2.2-.12v-1.078l-.006-.12a1.103 1.103 0 0 0-1.097-.983 1.09 1.09 0 0 0-.754.305 31.754 31.754 0 0 0 2.865-6.888c.003-.01.01-.018.012-.028v-.018A31.933 31.933 0 0 0 86 60c0-2.984-.42-5.87-1.186-8.611l-.001-.018c-.003-.009-.01-.014-.011-.022a31.8 31.8 0 0 0-2.854-6.872c.197.18.454.297.742.297.609 0 1.103-.494 1.103-1.104v-1.078l-.006-.12a1.103 1.103 0 0 0-2.2.12v1.078l.006.064c.01.04.023.08.03.121a31.18 31.18 0 0 0-.51-.844c-.028-.043-.07-.068-.102-.106a32.142 32.142 0 0 0-2.237-3.1c-.028-.046-.04-.096-.074-.138-.22-.266-.443-.529-.67-.787l-.07-.054-.533-.587a32.061 32.061 0 0 0-2.266-2.21c-.02-.02-.028-.047-.05-.065-.258-.227-.52-.45-.784-.667-.04-.033-.089-.044-.132-.07a32.077 32.077 0 0 0-3.107-2.242c-.039-.032-.064-.074-.107-.101a31.18 31.18 0 0 0-.844-.511c.07.013.133.04.207.04h1.078l.12-.006a1.103 1.103 0 0 0-.12-2.2h-1.078l-.12.006c-.553.06-.983.528-.983 1.097 0 .294.119.556.305.754a31.767 31.767 0 0 0-6.896-2.867c-.007 0-.011-.006-.019-.009h-.014A31.879 31.879 0 0 0 54 28zm22.008 60l-.118.007c-.5.057-.89.48-.89.993 0 .553.451 1 1.008 1h.984l.118-.007c.5-.057.89-.48.89-.993 0-.553-.451-1-1.008-1zm-45 0l-.118.007c-.5.057-.89.48-.89.993 0 .553.451 1 1.008 1h.984l.118-.007c.5-.057.89-.48.89-.993 0-.553-.451-1-1.008-1zm30.019.948l-.617.143a29.695 29.695 0 0 1-6.41.702c-2.421 0-4.772-.298-7.027-.845l3.065-12.26.48.108c1.125.237 2.287.373 3.482.373 1.366 0 2.688-.178 3.962-.48zM26.989 86.42a1.114 1.114 0 1 0-1.745 1.39c.277.347.594.665.942.945a1.114 1.114 0 0 0 1.396-1.74 3.942 3.942 0 0 1-.593-.595zm55.594-.176a1.12 1.12 0 0 0-1.568.171 3.8 3.8 0 0 1-.595.595 1.118 1.118 0 0 0 .696 1.99c.244 0 .488-.08.694-.243.347-.277.664-.593.944-.943a1.117 1.117 0 0 0-.17-1.57zM83 81c-.552 0-1 .45-1 1.007v.986l.007.117c.058.502.48.89.993.89.552 0 1-.45 1-1.007v-.986l-.007-.117c-.058-.5-.48-.89-.993-.89zm-58 0c-.552 0-1 .45-1 1.007v.986l.007.117c.058.502.48.89.993.89.552 0 1-.45 1-1.007v-.986l-.007-.117A1.003 1.003 0 0 0 25 81zm29-35.963c8.25 0 14.963 6.713 14.963 14.963S62.25 74.963 54 74.963 39.037 68.25 39.037 60 45.75 45.037 54 45.037zm-16.69 11l-.107.48A16.894 16.894 0 0 0 36.83 60c0 1.366.178 2.688.48 3.962l-12.258 3.065-.143-.617a29.654 29.654 0 0 1 .143-13.437zm45.638-3.064c.548 2.255.845 4.606.845 7.027 0 2.421-.297 4.772-.845 7.027L70.69 63.962l.107-.48c.237-1.125.373-2.287.373-3.482 0-1.366-.178-2.688-.48-3.962zM54 30.207c2.421 0 4.772.298 7.027.845l-3.065 12.26-.48-.108A16.844 16.844 0 0 0 54 42.83c-1.366 0-2.688.178-3.962.48l-3.065-12.259.617-.143a29.747 29.747 0 0 1 6.41-.701zM25 36c-.552 0-1 .45-1 1.007v.986l.007.117c.058.5.48.89.993.89.552 0 1-.45 1-1.007v-.986l-.007-.117A1.003 1.003 0 0 0 25 36zm58 0c-.552 0-1 .45-1 1.007v.986l.007.117c.058.502.48.89.993.89.552 0 1-.45 1-1.007v-.986l-.007-.117A1.003 1.003 0 0 0 83 36zm-55.243-4.578a1.115 1.115 0 0 0-1.568-.179 6.073 6.073 0 0 0-.943.942 1.116 1.116 0 0 0 1.738 1.399 3.8 3.8 0 0 1 .596-.595c.481-.385.56-1.087.177-1.567zm54.057-.178a1.114 1.114 0 1 0-1.397 1.74c.22.177.419.377.594.596a1.115 1.115 0 0 0 1.569.177 1.115 1.115 0 0 0 .177-1.567 6.095 6.095 0 0 0-.943-.946zM31.008 30l-.118.007c-.5.057-.89.48-.89.993 0 .553.451 1 1.008 1h.984l.118-.007c.5-.057.89-.48.89-.993 0-.553-.451-1-1.008-1zm45 0l-.118.007c-.5.057-.89.48-.89.993 0 .553.451 1 1.008 1h.984l.118-.007c.5-.057.89-.48.89-.993 0-.553-.451-1-1.008-1z"/>
</svg>
