<svg xmlns="http://www.w3.org/2000/svg" width="140" height="80" viewBox="0 0 140 80">
    <path fill="#EE6E00" fill-rule="evenodd" d="M61.582 50.244l-.007 3.265-8.387.016.006-3.264 8.388-.017zm34.05-.056l-.008 3.267-8.39.012.003-3.267 8.395-.012zM57.42 31.302c3.044-.005 5.699 1.203 5.691 5.104l-.002 1.37-4.49.005.004-2.067c-.001-.665-.232-1.29-1.053-1.287-.78 0-1.018.624-1.018 1.288l-.014 9.177c-.001.663.232 1.29 1.053 1.328.778-.003 1.015-.629 1.017-1.332l.003-3.005 4.493-.008-.005 2.657v.036c-.005 3.434-2.388 4.732-5.707 4.735-3.519.006-5.661-1.553-5.655-5.067l.012-7.809c.006-3.006 2.077-5.118 5.671-5.125zm-13.09.022c3.046-.007 5.778 1.476 5.77 4.831l-.011 8.28.038-.039c-.006 3.396-2.74 4.885-5.827 4.89-3.043.007-5.776-1.478-5.77-4.833l.015-8.237c.004-3.398 2.74-4.885 5.785-4.892zm46.808-.078c3.48-.005 5.699 2.293 5.696 4.754l-.001 1.29-4.26.006.045-1.407c.041-.78-.468-1.365-1.209-1.326-.705.002-1.015.472-1.015 1.215-.006 1.951 6.67 3.737 6.66 8.54-.007 3.592-2.156 4.923-6.06 4.93-2.929.004-5.19-1.671-5.186-4.953v-1.483l4.298-.007.037 1.561c.039.94.465 1.72 1.207 1.756.704 0 1.133-.586 1.133-1.368.008-3.122-6.669-4.246-6.659-8.539.003-3.32 2.348-4.964 5.314-4.969zm-12.63-.094c3.827-.007 5.58 2.137 5.576 4.48l-.02 13.162-4.527.006-.196-.86c-.782.86-1.641 1.294-3.4 1.296-1.873.041-3.198-1.674-3.156-3.745l.044-2.927c.087-4.765 6.569-3.33 6.572-6.884.002-.741-.037-1.366-.896-1.366-.819.001-1.055.627-1.057 1.369l-.004 1.635-4.606.01.005-1.637c.003-3.085 2.66-4.535 5.665-4.539zM9.586 26L19 35.576V49H0V35.576L9.586 26zm20.657 1.118l-.02 10.702 2.284-6.228 4.58-.01-2.558 7.169 3.156 10.099-4.855.005-2.569-9.549h-.039l-.015 9.554-4.503.007.038-21.744 4.501-.005zm39.564-.042l-.005 4.503 1.759-.005-.007 3.281-1.759.002-.013 8.124c0 1.092.035 2.341 1.21 2.339h.465l-.005 3.476-3.046.004c-2.89.005-3.197-2.456-3.195-5.347l.018-8.586h-1.564l.007-3.278 1.56-.005.008-4.498 4.567-.01zm9.509 13.054c-1.096.705-1.875 1.06-1.881 2.505l-.003 2.106c0 1.016.272 1.406.936 1.405.665 0 .94-.393.939-1.408zm-34.952-5.566c-.74 0-.976.628-.978 1.331l-.014 8.745c-.003.663.234 1.289 1.013 1.326.743 0 .974-.628.977-1.33l.016-8.746c.001-.662-.233-1.288-1.014-1.326z"/>
</svg>
