<svg xmlns="http://www.w3.org/2000/svg" width="101" height="100" viewBox="0 0 101 100">
    <g fill="none" fill-rule="nonzero">
        <path fill="#D07C40" d="M33.927 27h34.15v12.806h-34.15z"/>
        <path fill="#F4B459" d="M70.923 36.96v32.727a2.854 2.854 0 0 1-2.846 2.846h-34.15a2.854 2.854 0 0 1-2.845-2.846V36.96h39.841z"/>
        <path fill="#F4B459" d="M33.927 38.383h4.27V31.27L33.926 27v11.383zm29.881-7.114v7.114h4.27V27l-4.27 4.269z"/>
        <path fill="#E3911C" d="M38.196 36.96V31.27l-7.114 5.691h7.114zm25.612-5.691v5.691h7.115l-7.115-5.691z"/>
        <path fill="#CF984A" d="M38.908 44.075c-.854 0-1.423.569-1.423 1.423 0 .854.569 1.423 1.423 1.423.853 0 1.423-.57 1.423-1.423 0-.854-.57-1.423-1.423-1.423zm24.189 0c-.854 0-1.423.569-1.423 1.423 0 .854.57 1.423 1.423 1.423.854 0 1.423-.57 1.423-1.423 0-.854-.57-1.423-1.423-1.423z"/>
        <path fill="#CF984A" d="M38.908 46.778c.853 0 .996.996.996.996 0 6.404 4.838 11.526 11.098 11.526 6.261 0 11.1-5.122 11.1-11.526 0 0 .141-.996.995-.996s.996.996.996.996c0 7.542-5.691 13.518-13.09 13.518-7.4 0-13.091-6.119-13.091-13.518 0 0 .142-.996.996-.996z"/>
        <path fill="#FDFBF7" d="M38.908 45.355c.853 0 .996.997.996.997 0 6.403 4.838 11.525 11.098 11.525 6.261 0 11.1-5.122 11.1-11.525 0 0 .141-.997.995-.997s.996.997.996.997c0 7.541-5.691 13.517-13.09 13.517-7.4 0-13.091-6.118-13.091-13.517 0 0 .142-.997.996-.997z"/>
    </g>
</svg>
