<svg xmlns="http://www.w3.org/2000/svg" xmlns:xlink="http://www.w3.org/1999/xlink" width="32" height="32" viewBox="0 0 32 32">
    <defs>
        <path id="a" d="M0 23.88h44.171V0H0z"/>
    </defs>
    <g fill="none" fill-rule="evenodd" transform="translate(0 4)">
        <path fill="#0F222C" d="M7.371 17.541a3.17 3.17 0 0 1 0 6.34h-.879v-6.34h.879zM23.917 17.541a3.17 3.17 0 0 1 0 6.34h-.878v-6.34h.878z"/>
        <path fill="#0F222C" d="M7.371 17.541a3.17 3.17 0 0 1 0 6.34h-.879v-6.34h.879z"/>
        <path fill="#0F222C" d="M10.197 20.119a3.17 3.17 0 1 1 6.34 0 3.17 3.17 0 0 1-6.34 0M31.167 16.95a3.17 3.17 0 0 1 0 6.338h-.88V16.95h.88z"/>
        <path fill="#0F222C" d="M27.118 20.119a3.17 3.17 0 1 1 6.34 0 3.17 3.17 0 0 1-6.34 0"/>
        <mask id="b" fill="#fff">
            <use xlink:href="#a"/>
        </mask>
        <path fill="#E8BF7C" d="M23.039 5.615h16.256V0H23.039z" mask="url(#b)"/>
        <path fill="#E8BF7C" d="M16.536 18.604h13.005V5.6H16.536z" mask="url(#b)"/>
        <path fill="#D0A569" d="M16.536 13.1h13.005v-1.997H16.536z" mask="url(#b)"/>
        <path fill="#AB7A45" d="M21.682 13.1h2.713v-1.997h-2.713z" mask="url(#b)"/>
        <path fill="#D0A569" d="M22.04 18.604h1.997V5.6H22.04z" mask="url(#b)"/>
        <path fill="#D0A56B" d="M29.541 18.604h9.754V5.6H29.54z" mask="url(#b)"/>
        <path fill="#AB7A45" d="M29.541 13.1h9.754v-1.997H29.54z" mask="url(#b)"/>
        <path fill="#A87944" d="M29.541 5.614h9.754L44.17.767h-9.753z" mask="url(#b)"/>
        <path fill="#D0A56B" d="M29.541 5.6H16.536L11.66.722h13.004z" mask="url(#b)"/>
        <path fill="#AB7A45" d="M24.037 5.6H22.04L17.163.722h1.998z" mask="url(#b)"/>
        <path fill="#1D4259" d="M.625 20.71h28.916v-2.106H.625A.625.625 0 0 0 0 19.23v.855c0 .345.28.626.625.626" mask="url(#b)"/>
        <path fill="#FF524F" d="M.625 18.604h15.911V5.6H8.563a4.685 4.685 0 0 0-3.882 2.062l-3.252 4.813a4.685 4.685 0 0 0-.804 2.623v3.506z" mask="url(#b)"/>
        <path fill="#F2F2F2" d="M12.718 13.295V7.063H8.563c-1.071 0-2.07.53-2.67 1.418l-3.252 4.814h10.077z" mask="url(#b)"/>
        <path fill="#CE3836" d="M14.62 18.604h1.916V5.6H14.62z" mask="url(#b)"/>
        <path fill="#0F222C" d="M22.892 16.95a3.76 3.76 0 0 1 3.761 3.76h-7.522a3.76 3.76 0 0 1 3.761-3.76M6.346 16.95a3.761 3.761 0 0 1 3.76 3.76H2.586a3.76 3.76 0 0 1 3.76-3.76" mask="url(#b)"/>
        <path fill="#222846" d="M19.87 20.71a3.17 3.17 0 1 1 6.338 0 3.17 3.17 0 0 1-6.339 0" mask="url(#b)"/>
        <path fill="#F2F2F2" d="M21.48 20.71a1.56 1.56 0 1 1 3.118 0 1.56 1.56 0 0 1-3.119 0" mask="url(#b)"/>
        <path fill="#222846" d="M3.323 20.71a3.17 3.17 0 1 1 6.339 0 3.17 3.17 0 0 1-6.34 0" mask="url(#b)"/>
        <path fill="#F2F2F2" d="M4.933 20.71a1.56 1.56 0 1 1 3.119 0 1.56 1.56 0 0 1-3.12 0" mask="url(#b)"/>
        <path fill="#CE3836" d="M29.541 17.596h1.358v-1.293h-1.358z" mask="url(#b)"/>
        <path fill="#FF524F" d="M28.183 17.596h1.358v-1.293h-1.358z" mask="url(#b)"/>
        <path fill="#CE3836" d="M11.07 14.498h1.25c.22 0 .398-.178.398-.397v-.285h-2.045v.285c0 .219.178.397.397.397" mask="url(#b)"/>
        <path fill="#222846" d="M11.07 14.33h1.25c.22 0 .398-.179.398-.398v-.116h-2.045v.116c0 .22.178.397.397.397" mask="url(#b)"/>
        <path fill="#F2F2F2" d="M1.86 16.95c0-.683-.552-1.235-1.235-1.235v2.47c.683 0 1.235-.554 1.235-1.236" mask="url(#b)"/>
        <path fill="#1B3241" d="M39.294 18.604h-9.753a.625.625 0 0 0-.626.626v.855c0 .345.28.626.626.626h9.753c.346 0 .626-.28.626-.626v-.855a.625.625 0 0 0-.626-.626" mask="url(#b)"/>
        <path fill="#F2F2F2" d="M30.668 19.657a.448.448 0 1 0-.896 0 .448.448 0 0 0 .896 0M31.438 19.657a.224.224 0 1 0-.447 0 .224.224 0 0 0 .447 0" mask="url(#b)"/>
    </g>
</svg>
