<svg xmlns="http://www.w3.org/2000/svg" viewBox="0 0 87 24">
    <path fill="#FFF" fill-rule="evenodd" d="M77.575 21.097l7.455.001L85.028 24l-7.45-.002-.003-2.901zm-22.783.002l-.002 2.9-7.448.001v-2.899l7.45-.002zM81.012 4.27c3.09 0 5.064 2.045 5.065 4.23v1.146h-3.783l.039-1.25c.035-.692-.418-1.213-1.076-1.18-.626.001-.9.418-.9 1.078-.002 1.732 5.93 3.328 5.928 7.593-.002 3.19-1.908 4.37-5.375 4.37-2.601 0-4.611-1.492-4.613-4.406l-.001-1.317h3.816l.035 1.387c.036.834.416 1.527 1.075 1.56.625.002 1.005-.518 1.004-1.213.002-2.772-5.929-3.78-5.926-7.593-.003-2.948 2.078-4.405 4.712-4.405zm-29.944 0c2.703 0 5.063 1.077 5.061 4.541v1.217l-3.987-.002V8.19c-.002-.59-.208-1.146-.936-1.144-.693-.001-.904.553-.902 1.142v8.15c0 .588.208 1.145.937 1.18.691-.001.901-.556.902-1.18l-.002-2.669h3.99v2.391c0 3.05-2.114 4.199-5.062 4.196-3.124 0-5.03-1.387-5.03-4.508V8.814c0-2.67 1.837-4.543 5.03-4.543zm18.727-.102c3.399 0 4.958 1.906 4.959 3.987l.001 11.688-4.02-.001-.176-.764c-.693.764-1.455 1.147-3.016 1.146-1.664.034-2.843-1.491-2.809-3.33l.035-2.6c.07-4.23 5.828-2.948 5.826-6.104 0-.658-.035-1.213-.798-1.214-.727 0-.936.556-.937 1.214l-.001 1.453-4.09.002.002-1.455c-.002-2.739 2.355-4.023 5.024-4.022zm-30.352.103c2.705-.002 5.133 1.319 5.132 4.299l.001 7.352.034-.034c0 3.016-2.426 4.334-5.168 4.334-2.701.002-5.13-1.32-5.13-4.3V8.605c0-3.017 2.426-4.334 5.13-4.335zM8.536 0l8.383 8.398v11.77H0V8.399L8.536 0zm53.526.536l.002 3.998 1.562-.002-.001 2.915-1.562-.001v7.214c.001.97.035 2.08 1.078 2.079h.413v3.088l-2.704-.001c-2.566 0-2.843-2.186-2.845-4.753l.003-7.625-1.39-.003.003-2.91 1.385-.003V.538l4.056-.002zM22.93.513l3.998.002-.002 9.504 2.019-5.528 4.067-.003-2.261 6.364 2.818 8.973-4.312-.002-2.295-8.484h-.035v8.484h-3.999L22.93.513zm47.597 11.629c-.972.625-1.664.939-1.667 2.222v1.87c.001.903.244 1.25.834 1.25s.834-.348.831-1.25zM39.478 7.148c-.657 0-.866.556-.866 1.18v7.767c-.002.588.21 1.145.901 1.18.66 0 .864-.558.866-1.18l.001-7.768c0-.588-.208-1.144-.902-1.179z"/>
</svg>
