<svg xmlns="http://www.w3.org/2000/svg" xmlns:xlink="http://www.w3.org/1999/xlink" width="113" height="90" viewBox="0 0 113 90">
    <defs>
        <path id="a" d="M0 0h113v90H0z"/>
    </defs>
    <g fill="none" fill-rule="evenodd">
        <mask id="b" fill="#fff">
            <use xlink:href="#a"/>
        </mask>
        <path fill="#201E1B" d="M44-24c38.108 0 69 30.892 69 69 0 38.108-30.892 69-69 69-38.108 0-69-30.892-69-69 0-38.108 30.892-69 69-69zm-5.802 57.75l-.199.005c-1.845.095-3.347 1.51-3.528 3.32l-1.706 13.313-.014.178c-.015.473.15.94.467 1.296a1.87 1.87 0 0 0 1.407.637h2.024l1.568 19.125.024.197a3.737 3.737 0 0 0 3.707 3.178h4.106l.2-.005c1.844-.096 3.347-1.518 3.535-3.404l1.564-19.09h2.021l.179-.01c.473-.045.91-.268 1.227-.628.36-.401.525-.941.454-1.478l-1.702-13.26-.025-.197a3.735 3.735 0 0 0-3.703-3.177H47.75l-.165.007a1.89 1.89 0 0 0-1.162.54l-2.423 2.423-2.422-2.423-.122-.11a1.886 1.886 0 0 0-1.206-.437zm18.75 0l-.17.013c-.168.025-.328.08-.494.11.484.855.863 1.782.975 2.82l1.699 13.215.028.268a5.615 5.615 0 0 1-1.4 4.18c-.51.584-1.163.997-1.86 1.32l1.244 12.198.025.197a3.736 3.736 0 0 0 3.707 3.178h4.106l.199-.005c1.845-.096 3.347-1.517 3.536-3.404l1.56-15.34h2.02l.18-.01c.472-.045.91-.268 1.227-.628.36-.401.525-.941.454-1.478L72.28 37.128l-.024-.197a3.732 3.732 0 0 0-3.703-3.181h-2.055l-.165.007a1.89 1.89 0 0 0-1.163.54L62.75 36.72l-2.422-2.423-.122-.11a1.883 1.883 0 0 0-1.202-.437zm-37.5 0l-.198.005c-1.845.095-3.348 1.51-3.529 3.32l-1.706 13.313-.014.178a1.876 1.876 0 0 0 1.874 1.934H17.9l1.567 15.374.025.197a3.737 3.737 0 0 0 3.706 3.178h4.107l.199-.005c1.845-.096 3.347-1.517 3.535-3.404l1.245-12.168-.26-.127c-.603-.306-1.163-.69-1.622-1.208a5.617 5.617 0 0 1-1.357-4.421L30.75 36.6l.042-.33c.138-.867.475-1.66.892-2.4-.21-.038-.41-.12-.63-.12H29l-.166.007a1.89 1.89 0 0 0-1.162.54L25.25 36.72l-2.423-2.423-.122-.11a1.883 1.883 0 0 0-1.201-.437zM44 15a7.5 7.5 0 1 0 0 15 7.5 7.5 0 0 0 0-15zm18.75 0a7.5 7.5 0 1 0 0 15 7.5 7.5 0 0 0 0-15zm-37.5 0c-4.135 0-7.5 3.364-7.5 7.5s3.365 7.5 7.5 7.5c4.133 0 7.5-3.364 7.5-7.5s-3.367-7.5-7.5-7.5z" mask="url(#b)"/>
    </g>
</svg>
