<svg xmlns="http://www.w3.org/2000/svg" xmlns:xlink="http://www.w3.org/1999/xlink" width="113" height="90" viewBox="0 0 113 90">
    <defs>
        <path id="a" d="M0 0h113v90H0z"/>
    </defs>
    <g fill="none" fill-rule="evenodd">
        <mask id="b" fill="#fff">
            <use xlink:href="#a"/>
        </mask>
        <path fill="#201E1B" d="M44-24c38.108 0 69 30.892 69 69 0 38.108-30.892 69-69 69-38.108 0-69-30.892-69-69 0-38.108 30.892-69 69-69zM24.845 64.319h-.25l-.078.002H20.39l-.25-.003a8.03 8.03 0 0 0-7.998 7.808l-.001.039-.001 1.217.008.14c.087.72.85 1.112 1.612 1.112h17.385l.143-.004c.76-.049 1.478-.485 1.478-1.248v-1.179l-.008-.25a8.03 8.03 0 0 0-8.164-7.633zm44.198 0h-.25l-.078.002H64.59l-.25-.003a8.03 8.03 0 0 0-7.999 7.808l-.002.077v1.18l.009.138c.087.722.85 1.113 1.612 1.113h17.385l.143-.004c.76-.049 1.477-.485 1.477-1.248v-1.179l-.008-.25a8.03 8.03 0 0 0-8.164-7.633zm-15.43 4.864a1.473 1.473 0 0 0-1.914-.884 22.395 22.395 0 0 1-14.218 0 1.473 1.473 0 0 0-1.841.958 1.4 1.4 0 0 0 .884 1.841 25.193 25.193 0 0 0 16.132 0 1.547 1.547 0 0 0 .958-1.915zM22.455 51.577a5.893 5.893 0 1 0 0 11.787 5.893 5.893 0 0 0 0-11.787zm44.198 0a5.893 5.893 0 1 0 0 11.787 5.893 5.893 0 0 0 0-11.787zM30.511 27.395a1.473 1.473 0 0 0-1.87-.2A25.34 25.34 0 0 0 19.14 47.01a1.473 1.473 0 1 0 2.947 0 22.468 22.468 0 0 1 8.397-17.532c.583-.568.595-1.5.028-2.083zm28.701-1.158a1.482 1.482 0 0 0-1.694 2.43 22.394 22.394 0 0 1 9.503 18.343 1.473 1.473 0 1 0 2.946 0 25.562 25.562 0 0 0-10.755-20.773zm-12.268-2.433h-.25l-.078.002h-4.125l-.25-.003-.249.005a8.03 8.03 0 0 0-7.75 7.802l-.002.078v1.179l.009.139c.087.722.85 1.113 1.612 1.113h17.385l.143-.004c.76-.05 1.477-.486 1.477-1.248v-1.179l-.008-.25a8.03 8.03 0 0 0-8.164-7.634zm-2.39-12.742a5.893 5.893 0 1 0 0 11.787 5.893 5.893 0 0 0 0-11.787z" mask="url(#b)"/>
    </g>
</svg>
