<svg xmlns="http://www.w3.org/2000/svg" width="226" height="42" viewBox="0 0 226 42">
    <g fill="none" fill-rule="evenodd">
        <g>
            <circle cx="21" cy="21" r="21" fill="#F1F1FA"/>
            <path fill="#202020" fill-rule="nonzero" d="M8.077 26.957a.587.587 0 0 1 .8-.22l9.199 5.228 4.047-2.548a.587.587 0 1 1 .625.993l-4.344 2.736a.587.587 0 0 1-.603.013l-9.504-5.402a.587.587 0 0 1-.22-.8zm0-2.348a.587.587 0 0 1 .8-.22l9.199 5.229 4.047-2.549a.587.587 0 1 1 .625.993l-4.344 2.736a.587.587 0 0 1-.603.014l-9.504-5.403a.587.587 0 0 1-.22-.8zm15.46-14.513a.587.587 0 0 1 .603-.014l9.504 5.403a.587.587 0 0 1 .023 1.007l-4.344 2.735a.587.587 0 1 1-.626-.993l3.515-2.213-8.346-4.744-4.979 3.134 8.647 4.915a.595.595 0 0 1 .065.043l.012.009c.016.012.03.025.045.04l.01.008a.57.57 0 0 1 .047.054l.005.007c.01.013.02.026.028.04l.006.01.005.01.006.01.022.045.008.018a.585.585 0 0 1 .022.065l.009.036.006.035.001.015c.003.02.004.039.004.058l.001.01v7.043c0 .202-.103.39-.274.497L24.509 29.3a.586.586 0 0 1-.9-.496v-6.702l-8.901-5.06-4.979 3.135 8.347 4.744 4.047-2.548a.587.587 0 1 1 .625.993l-4.344 2.736a.587.587 0 0 1-.603.013l-9.504-5.402a.587.587 0 0 1-.023-1.007l6.106-3.844.004-.003 3.049-1.92.003-.002zM8.078 22.262a.587.587 0 0 1 .8-.22l9.199 5.228 4.047-2.549a.587.587 0 1 1 .625.994l-4.344 2.736a.587.587 0 0 1-.603.013l-9.504-5.402a.587.587 0 0 1-.22-.8zm9.684-7.141l-1.926 1.213 8.651 4.917c.184.105.297.3.297.51v5.98l1.88-1.183v-5.655l-.662.416a.584.584 0 0 1-.809-.184.587.587 0 0 1 .184-.81l.73-.46-8.345-4.744zm15.28 7.42a.587.587 0 1 1 .626.993l-4.344 2.736a.584.584 0 0 1-.81-.184.587.587 0 0 1 .184-.81zm0-2.348a.587.587 0 1 1 .626.994l-4.344 2.736a.584.584 0 0 1-.81-.184.587.587 0 0 1 .184-.81zm0-2.347a.587.587 0 1 1 .626.993l-4.344 2.736a.584.584 0 0 1-.81-.184.587.587 0 0 1 .184-.81z"/>
        </g>
        <g transform="translate(92)">
            <circle cx="21" cy="21" r="21" fill="#F1F1FA"/>
            <path fill="#202020" fill-rule="nonzero" d="M21 10c2.938 0 5.7 1.144 7.778 3.222A10.928 10.928 0 0 1 32 21c0 2.938-1.144 5.7-3.222 7.778A10.928 10.928 0 0 1 21 32c-2.938 0-5.7-1.144-7.778-3.222A10.928 10.928 0 0 1 10 21c0-2.938 1.144-5.7 3.222-7.778A10.928 10.928 0 0 1 21 10zm0 1.29c-5.355 0-9.71 4.355-9.71 9.71s4.355 9.71 9.71 9.71 9.71-4.355 9.71-9.71-4.355-9.71-9.71-9.71zm4.344 6.18a.645.645 0 0 1 .911.912l-6.147 6.147a.643.643 0 0 1-.912 0l-3.451-3.451a.645.645 0 1 1 .911-.912l2.996 2.996z"/>
        </g>
        <g transform="translate(184)">
            <circle cx="21" cy="21" r="21" fill="#F1F1FA"/>
            <path fill="#202020" fill-rule="nonzero" d="M20.848 10.036a.439.439 0 0 1 .304 0l10.561 3.897a.438.438 0 0 1 .287.411v12.539a.438.438 0 0 1-.287.41l-10.561 3.898a.445.445 0 0 1-.304 0l-10.561-3.897a.438.438 0 0 1-.287-.411V14.344a.438.438 0 0 1 .286-.41zm-9.972 4.937v11.604l9.686 3.574V18.547l-2.104-.777v4.987a.438.438 0 0 1-.59.411l-4.733-1.746a.438.438 0 0 1-.286-.411V15.7l-1.973-.728zm20.248 0l-9.686 3.574V30.15l9.686-3.574V14.973zm-7.278 12.416a.438.438 0 1 1 .304.823l-.193.07a.438.438 0 1 1-.304-.821zm5.811-2.144a.438.438 0 0 1 .303.823l-4.557 1.681a.438.438 0 1 1-.304-.822zm0-1.786a.438.438 0 0 1 .303.823L26.36 25.61a.438.438 0 1 1-.304-.823zm0-1.767a.438.438 0 0 1 .303.823l-3.601 1.329a.438.438 0 1 1-.304-.823zm-15.932-5.668v4.681l3.857 1.423v-4.681l-3.857-1.423zM21 10.914l-9.296 3.43 1.578.582 4.586-1.692a.439.439 0 0 1 .304 0l4.733 1.746a.438.438 0 0 1 0 .823L19.28 17.14l1.719.634 9.296-3.43L21 10.914zm-2.98 3.198l-3.467 1.28 3.467 1.279 3.467-1.28-3.467-1.279z"/>
        </g>
        <path fill="#202020" fill-rule="nonzero" d="M74.321 16.5l9 4.5-9 4.5v-4H48.5v-1h25.821v-4zM166.232 16.5l9 4.5-9 4.5-.001-4h-25.82v-1h25.82v-4z"/>
    </g>
</svg>
