<svg xmlns="http://www.w3.org/2000/svg" viewBox="0 0 281.786 425.502"><g transform="translate(-992 -255)"><g transform="translate(991.282 358.502)"><path d="M21.366.5h241.7V91.49H21.366Z" fill="#d07c40"/><path d="M282.5,70.865V301.909A20.169,20.169,0,0,1,262.376,322H20.846A20.169,20.169,0,0,1,.718,301.909V70.865Z" fill="#f4b459"/><path d="M21.366,80.57H51.58V30.527L21.366.5V80.571Zm211.49-50.044V80.571H263.07V.5L232.857,30.526Z" fill="#f4b459"/><path d="M51.037,70.865V30.829L.718,70.865h50.32ZM232.185,30.829V70.865H282.5l-50.32-40.036Z" fill="#e3911c"/><path d="M55.759,120.607c-6.061,0-10.1,4.124-10.1,10.312s4.039,10.312,10.1,10.312,10.1-4.124,10.1-10.312-4.04-10.312-10.1-10.312Zm171.7,0c-6.06,0-10.1,4.124-10.1,10.312s4.04,10.312,10.1,10.312,10.1-4.124,10.1-10.312-4.04-10.312-10.1-10.312Z" fill="#cf984a"/><path d="M56.37,140.018c6.06,0,7.07,7.078,7.07,7.078,0,45.495,34.339,81.891,78.777,81.891s78.777-36.4,78.777-81.891c0,0,1.01-7.078,7.07-7.078s7.07,7.078,7.07,7.078c0,53.583-40.4,96.045-92.916,96.045S49.3,199.667,49.3,147.1c0,0,1.009-7.078,7.068-7.078Z" fill="#cf984a"/><path d="M56.37,130.312c6.06,0,7.07,7.078,7.07,7.078,0,45.495,34.339,81.892,78.777,81.892s78.777-36.4,78.777-81.892c0,0,1.01-7.078,7.07-7.078s7.07,7.078,7.07,7.078c0,53.584-40.4,96.045-92.916,96.045S49.3,189.962,49.3,137.39c0,0,1.009-7.078,7.068-7.078Z" fill="#fdfbf7"/></g><g transform="translate(1065.406 254.219)"><path d="M10.061,26.287V17.33H95.837a22.51,22.51,0,0,1,22.572,22.392V156.76l-13.543,13.435-9.03-8.956-9.028,8.956-9.03-8.956-9.028,8.956-9.03-8.956-9.028,8.956-9.03-8.956-9.028,8.956L19.09,156.76V53.163L14.576,51.47V31.482l-4.515-5.195Z" fill="#f5efeb"/><path d="M37.411,59.274V52.929h63.116v6.345H37.41ZM56.346,72.869V66.525H78.887v6.344Zm-18.033,0V66.525h9.016v6.344Zm18.033,13.6V80.12H78.887v6.345H56.346Zm-18.033,0V80.12h9.016v6.345H38.313Zm18.033,13.6V93.716H78.887v6.345Zm-18.033,0V93.716h9.016v6.345Zm-.9,13.6v-6.344h63.116v6.344H37.41Z" fill="#575f64"/><path d="M18.477,26.229v26.7H.594v-26.7a8.942,8.942,0,0,1,17.883,0Z" fill="#dfd1cc"/><g transform="translate(85.594 -13)"><circle cx="17.719" cy="17.719" r="17.719" transform="translate(13.781 13.781)" fill="#39b54a"/><path d="M25.22,31.53a1.969,1.969,0,0,0-2.635,2.927l4.025,3.625a1.97,1.97,0,0,0,2.71-.071l11.02-11.02a1.969,1.969,0,1,0-2.784-2.785l-9.7,9.7-2.637-2.375Z" fill="#fff"/></g></g></g></svg>