<svg xmlns="http://www.w3.org/2000/svg" xmlns:xlink="http://www.w3.org/1999/xlink" width="135" height="114" viewBox="0 0 135 114">
    <defs>
        <rect id="a" width="135" height="114" rx="4"/>
    </defs>
    <g fill="none" fill-rule="evenodd">
        <mask id="b" fill="#fff">
            <use xlink:href="#a"/>
        </mask>
        <use fill="#DA232A" xlink:href="#a"/>
        <path fill="#BA111B" d="M54-24c44.735 0 81 36.265 81 81s-36.265 81-81 81-81-36.265-81-81S9.265-24 54-24zm24.412 50.962c-1.866-1.474-4.646-1.229-6.182.562L25.003 82.106a4.107 4.107 0 0 0 .585 5.932l.183.137c1.86 1.32 4.512 1.034 6-.699l47.226-54.582a4.107 4.107 0 0 0-.585-5.932zM75 54c-9.951 0-18 7.825-18 17.5S65.049 89 75 89s18-7.825 18-17.5S84.951 54 75 54zm0 10.244c4.122 0 7.463 3.249 7.463 7.256S79.122 78.756 75 78.756s-7.463-3.249-7.463-7.256 3.341-7.256 7.463-7.256zM29 25c-9.951 0-18 7.825-18 17.5C11 52.14 19.049 60 29 60s18-7.825 18-17.5S38.951 25 29 25zm.037 10.244c4.122 0 7.463 3.249 7.463 7.256s-3.341 7.256-7.463 7.256-7.464-3.249-7.464-7.256 3.342-7.256 7.464-7.256z" mask="url(#b)"/>
    </g>
</svg>
