<svg xmlns="http://www.w3.org/2000/svg" xmlns:xlink="http://www.w3.org/1999/xlink" width="113" height="90" viewBox="0 0 113 90">
    <defs>
        <path id="a" d="M0 0h113v90H0z"/>
    </defs>
    <g fill="none" fill-rule="evenodd">
        <mask id="b" fill="#fff">
            <use xlink:href="#a"/>
        </mask>
        <path fill="#201E1B" d="M44-24c38.108 0 69 30.892 69 69 0 38.108-30.892 69-69 69-38.108 0-69-30.892-69-69 0-38.108 30.892-69 69-69zm-2.906 43.799C25.052 19.799 12 32.85 12 48.893c0 16.042 13.052 29.094 29.094 29.094s29.092-13.052 29.092-29.094c0-2.724-.376-5.422-1.12-8.02a1.534 1.534 0 0 0-2.948.844 26.082 26.082 0 0 1 1.001 7.176c0 14.35-11.674 26.027-26.025 26.027-14.351 0-26.027-11.676-26.027-26.027 0-14.352 11.676-26.027 26.027-26.027 2.443 0 4.862.338 7.188 1.006a1.533 1.533 0 1 0 .846-2.948 29.099 29.099 0 0 0-8.034-1.125zm0 9.187c-10.977 0-19.908 8.93-19.908 19.907 0 10.976 8.93 19.907 19.908 19.907 10.977 0 19.907-8.93 19.907-19.907 0-2.525-.468-4.988-1.39-7.32a1.534 1.534 0 0 0-2.851 1.128 16.764 16.764 0 0 1 1.174 6.192c0 9.285-7.554 16.84-16.84 16.84s-16.841-7.555-16.841-16.84 7.555-16.84 16.841-16.84c2.145 0 4.232.398 6.202 1.182a1.533 1.533 0 1 0 1.134-2.85 19.752 19.752 0 0 0-7.336-1.399zm0 9.186c-5.911 0-10.72 4.809-10.72 10.72 0 5.911 4.809 10.72 10.72 10.72 5.91 0 10.72-4.809 10.72-10.72 0-.312-.015-.627-.042-.936a1.534 1.534 0 1 0-3.055.273c.02.219.03.442.03.664 0 4.22-3.434 7.652-7.653 7.652-4.22 0-7.654-3.433-7.654-7.652 0-4.22 3.434-7.654 7.654-7.654.236 0 .467.01.686.03a1.533 1.533 0 1 0 .282-3.054 10.598 10.598 0 0 0-.968-.043zM66.69 13.235a3.058 3.058 0 0 0-3.342.665l-8.935 8.935-.168.177a4.566 4.566 0 0 0-1.179 3.075v8.678L40.603 47.228l-.105.116a1.534 1.534 0 0 0 2.274 2.053l12.463-12.463h8.678l.245-.007a4.566 4.566 0 0 0 3.007-1.34l8.935-8.935.14-.15a3.056 3.056 0 0 0 .525-3.192 3.059 3.059 0 0 0-2.834-1.894h-5.347V16.07l-.007-.195a3.058 3.058 0 0 0-1.887-2.64zm.995 11.248l6.245.001-8.933 8.934-.112.101a1.545 1.545 0 0 1-.972.347h-5.61l9.382-9.383zm-2.168-8.413v6.245l-9.384 9.383v-5.611l.008-.152a1.52 1.52 0 0 1 .441-.932l8.935-8.933z" mask="url(#b)"/>
    </g>
</svg>
